<?xml version="1.0" encoding="UTF-8" standalone="no"?>
<!-- Created with Inkscape (http://www.inkscape.org/) -->

<svg
   width="210mm"
   height="297mm"
   viewBox="0 0 210 297"
   version="1.1"
   id="svg8"
   inkscape:version="1.2.2 (732a01da63, 2022-12-09)"
   sodipodi:docname="pieczątka.svg"
   xmlns:inkscape="http://www.inkscape.org/namespaces/inkscape"
   xmlns:sodipodi="http://sodipodi.sourceforge.net/DTD/sodipodi-0.dtd"
   xmlns="http://www.w3.org/2000/svg"
   xmlns:svg="http://www.w3.org/2000/svg"
   xmlns:rdf="http://www.w3.org/1999/02/22-rdf-syntax-ns#"
   xmlns:cc="http://creativecommons.org/ns#"
   xmlns:dc="http://purl.org/dc/elements/1.1/">
  <defs
     id="defs2" />
  <sodipodi:namedview
     id="base"
     pagecolor="#ffffff"
     bordercolor="#666666"
     borderopacity="1.0"
     inkscape:pageopacity="0.0"
     inkscape:pageshadow="2"
     inkscape:zoom="0.24748738"
     inkscape:cx="-286.88332"
     inkscape:cy="501.03565"
     inkscape:document-units="mm"
     inkscape:current-layer="layer1"
     showgrid="false"
     inkscape:window-width="1920"
     inkscape:window-height="1009"
     inkscape:window-x="-8"
     inkscape:window-y="-8"
     inkscape:window-maximized="1"
     showguides="false"
     inkscape:showpageshadow="true"
     inkscape:pagecheckerboard="0"
     inkscape:deskcolor="#d1d1d1"
     showborder="false" />
  <metadata
     id="metadata5">
    <rdf:RDF>
      <cc:Work
         rdf:about="">
        <dc:format>image/svg+xml</dc:format>
        <dc:type
           rdf:resource="http://purl.org/dc/dcmitype/StillImage" />
      </cc:Work>
    </rdf:RDF>
  </metadata>
  <g
     inkscape:label="Layer 1"
     inkscape:groupmode="layer"
     id="layer1">
    <path
       style="fill:#000000;stroke-width:0.26458341"
       d="m 40.667948,163.54339 c 0.065,-0.065 0.1502,-3.45074 0.1893,-7.52393 0.039,-4.07318 0.1688,-7.82251 0.2881,-8.33183 0.1193,-0.50932 0.2769,-9.20089 0.3502,-19.31458 0.2011,-27.7445 0.3296,-35.31682 0.6512,-38.36459 0.1612,-1.527969 0.2859,-6.052339 0.2772,-10.054159 -0.029,-13.186861 0.2594,-21.794081 0.7973,-23.812501 0.1357,-0.50933 0.2474,-1.3013 0.2482,-1.75996 0,-0.64505 0.1887,-0.95245 0.8282,-1.35736 1.7367,-1.09961 3.2168,0.1439 4.3814,3.68114 0.9036,2.74476 1.8404,4.73266 4.5343,9.62263 4.3747,7.94087 5.6234,10.28484 6.1316,11.50938 0.1509,0.3638 0.5786,1.19724 0.9504,1.85208 0.3718,0.654851 0.9777,1.901589 1.3465,2.77056 0.3688,0.868971 1.004,2.297721 1.4115,3.175 0.4075,0.877279 1.1878,2.66663 1.734,3.97632 1.4457,3.466359 5.077699,11.14666 6.8819,14.55208 1.3427,2.5345 1.435,2.73085 1.435,3.05136 0,0.15423 0.415499,1.16787 0.9233,2.25253 0.9505,2.03002 1.629199,2.51873 1.925299,1.38634 0.139901,-0.53488 2.753,-5.79827 3.812601,-7.67932 0.243901,-0.43299 0.690401,-1.05011 0.992201,-1.37136 0.301799,-0.32123 0.548698,-0.68175 0.548698,-0.80113 0,-0.18196 1.107101,-2.14472 4.036401,-7.15614 0.255601,-0.437139 1.119299,-2.104469 1.9195,-3.705199 0.8001,-1.600721 1.562401,-3.08901 1.694,-3.307291 0.516101,-0.85656 2.6846,-5.3241 3.8584,-7.94932 0.6804,-1.52146 1.759799,-3.79955 2.398699,-5.06241 0.639001,-1.26286 1.5699,-3.34645 2.0687,-4.63021 1.5068,-3.87805 2.880003,-6.97553 4.143203,-9.34556 0.6593,-1.23692 1.3465,-2.7496 1.5272,-3.3615 0.4558,-1.54406 1.4374,-2.62753 2.5733,-2.84065 1.3071,-0.24519 1.8561,-0.006 2.3445,1.02373 0.2316,0.48813 0.6003,0.95626 0.8192,1.04029 0.219,0.084 0.3982,0.43756 0.3982,0.78562 0,0.34806 0.2717,1.0364 0.6039,1.52967 0.3321,0.49323 0.8234,1.49211 1.0916,2.21972 0.2683,0.7276 1.3509,3.10885 2.4059,5.29166 1.0549,2.18282 2.4123,5.00552 3.0165,6.27267 0.6042,1.26714 1.2143,2.37551 1.3559,2.463 0.1416,0.0875 0.2574,0.32499 0.2574,0.52771 0,0.20276 0.9965,2.42817 2.2144,4.945331 2.1578,4.45979 3.3642,6.98654 5.5329,11.588168 0.5829,1.236932 1.3209,2.606151 1.6399,3.042711 0.319,0.43656 0.7844,1.349931 1.0343,2.029672 0.2499,0.679767 0.6266,1.378958 0.8372,1.553768 0.2107,0.174781 0.383,0.436131 0.383,0.580731 0,0.497258 2.8892,6.204509 3.3233,6.564789 0.415,0.34433 2.0382,2.70563 2.6282,3.82312 0.5012,0.94914 1.3163,0.80468 1.7956,-0.31824 0.2358,-0.55256 0.7116,-1.48093 1.0573,-2.06301 0.9201,-1.54924 2.1199,-3.95978 3.0947,-6.21771 1.1559,-2.67724 2.2446,-4.91453 3.0899,-6.35 0.9975,-1.69373 2.1941,-4.124799 2.6087,-5.299869 0.3024,-0.857091 0.8808,-2.01935 2.432,-4.88659 0.1574,-0.291041 0.4132,-0.82682 0.5684,-1.190622 0.1552,-0.363799 0.7816,-1.55443 1.3921,-2.645828 0.6105,-1.091411 1.5139,-2.754981 2.0075,-3.696841 0.4937,-0.94186 1.0512,-1.89436 1.239,-2.11667 0.4853,-0.57446 3.7838,-6.63075 4.9756,-9.13545 0.4155,-0.87313 0.933,-1.88516 1.1501,-2.24896 0.2171,-0.3638 1.0053,-1.91161 1.7515,-3.43958 0.7463,-1.52797 1.671,-3.13944 2.055,-3.58109 0.6028,-0.69318 0.8172,-0.77861 1.5686,-0.62492 0.4787,0.0979 1.1002,0.11793 1.381,0.0445 0.2872,-0.0751 0.5106,0 0.5106,0.17264 0,0.16838 0.2384,0.62876 0.5296,1.02304 0.4908,0.66429 0.5385,1.23685 0.6504,7.8046 0.066,3.89826 0.2601,8.60123 0.4304,10.45104 0.2138,2.32164 0.2398,5.00227 0.084,8.655001 -0.3704,8.69111 -0.2068,20.495309 0.2952,21.307579 0.068,0.10959 0.1433,9.52868 0.168,20.93127 0.025,11.40259 0.1448,22.87511 0.2669,25.49448 0.2418,5.18158 0.5856,31.66922 0.5135,39.55521 -0.025,2.69214 -0.1652,6.14495 -0.3126,7.67292 -0.2535,2.62943 -0.3544,6.83429 -0.2411,10.05416 0.029,0.81407 -0.1458,2.02512 -0.3959,2.74879 -0.4233,1.22496 -2.4848,4.36591 -4.2496,6.47472 -0.4432,0.52962 -1.0094,1.28715 -1.2582,1.68341 -0.2488,0.39624 -1.7316,2.07932 -3.2952,3.7401 -1.5636,1.66082 -3.4977,3.7673 -4.298,4.68106 -1.8519,2.11426 -3.4983,3.73679 -5.1049,5.03101 -0.6976,0.56196 -2.1433,1.95182 -3.2127,3.08852 -1.0693,1.13673 -3.2965,3.15849 -4.9493,4.49279 -1.6528,1.33429 -3.6598,2.96849 -4.4602,3.63157 -1.4876,1.23242 -4.417,2.76436 -6.59,3.4463 -0.6683,0.20976 -2.3463,0.75475 -3.7288,1.21107 -4.5252,1.49374 -7.9364,2.13334 -12.0385,2.25728 -1.4552,0.044 -3.7769,0.15837 -5.1594,0.25425 -1.3824,0.0959 -2.773,0.0732 -3.09,-0.0505 -0.3171,-0.12364 -1.9245,-0.15275 -3.5719,-0.0647 -2.9803,0.15928 -9.714501,-0.32205 -11.065201,-0.79086 -0.3638,-0.12625 -1.3163,-0.37558 -2.116601,-0.55401 -0.800399,-0.17844 -1.931501,-0.48353 -2.5136,-0.67797 -2.7916,-0.93255 -5.0532,-1.77844 -5.3009,-1.98276 -0.150601,-0.1242 -1.162601,-0.54346 -2.248901,-0.93165 -1.0864,-0.38823 -2.153798,-0.85559 -2.3721,-1.0386 -0.218199,-0.183 -1.203799,-0.65108 -2.190099,-1.04013 -2.1199,-0.83624 -3.875601,-1.7456 -4.850101,-2.51218 -0.387199,-0.3046 -0.815398,-0.55378 -0.9514,-0.55378 -0.136099,0 -0.745098,-0.34613 -1.353399,-0.76915 -1.3975,-0.97186 -11.438,-10.0888 -12.4311,-11.28762 -0.4079,-0.49247 -1.0628,-1.23447 -1.4552,-1.64886 -1.0328,-1.09069 -2.9624,-3.4344 -2.9624,-3.59815 0,-0.61227 -2.733,-4.39523 -4.4156,-6.11185 -1.141,-1.16416 -2.8139,-3.08787 -3.7175,-4.27492 -0.9036,-1.18706 -1.941,-2.39274 -2.3053,-2.67928 -0.3643,-0.28657 -0.7776,-0.82415 -0.9184,-1.19459 -0.3833,-1.00807 -0.5583,-5.65415 -0.59,-15.66371 -0.016,-4.94771 -0.1203,-11.31755 -0.2324,-14.15521 -0.3628,-9.17212 -0.5344,-15.77321 -0.4134,-15.89423 z m 6.2059,12.05778 c 0.8352,6.33577 0.8878,7.48443 0.6417,14.03141 -0.1366,3.63334 -0.1798,7.61812 -0.096,8.85505 0.1374,2.02816 0.2071,2.25676 0.7101,2.32857 0.5395,0.077 0.8971,-0.16338 2.9695,-1.99657 0.5339,-0.47226 1.0587,-0.85921 1.1663,-0.8599 0.1076,0 0.8341,-0.56681 1.6144,-1.25804 2.1983,-1.94749 4.0432,-3.32745 6.9212,-5.1771 1.4553,-0.93522 2.9485,-2.00126 3.3184,-2.36895 0.3699,-0.36766 1.4415,-1.0474 2.3813,-1.5105 0.939699,-0.4631 2.1254,-1.06392 2.6347,-1.33514 0.810299,-0.43146 3.181,-1.59158 5.688599,-2.78366 1.269101,-0.60335 4.165802,-1.70746 4.479502,-1.70746 0.158099,0 1.616099,-0.52073 3.240199,-1.15716 1.6242,-0.63642 3.4091,-1.23997 3.966599,-1.34117 0.557501,-0.1012 1.824402,-0.47344 2.815402,-0.82722 0.990899,-0.35375 2.062498,-0.64394 2.3812,-0.64484 0.318799,0 0.936699,-0.18934 1.373298,-0.41876 0.436602,-0.22944 1.210501,-0.45587 1.7198,-0.50315 0.509302,-0.0473 2.309,-0.21514 3.999301,-0.37293 3.920302,-0.366 7.851202,-0.40466 8.700702,-0.0855 0.3638,0.13665 1.2796,0.32811 2.0351,0.42545 0.7556,0.0973 1.7935,0.35237 2.3066,0.56676 0.5132,0.21439 1.3237,0.39034 1.8014,0.39097 0.4776,0 1.7018,0.29578 2.7204,0.65588 1.0187,0.3601 2.2313,0.65722 2.6948,0.66029 0.4635,0.003 1.1778,0.13412 1.5875,0.2912 0.4097,0.15709 1.5187,0.37899 2.4646,0.49308 1.7238,0.20796 2.5458,0.45268 6.4823,1.92982 2.0852,0.78248 2.6822,1.04106 6.8792,2.97998 1.1641,0.53781 2.5929,1.12646 3.175,1.30812 2.2572,0.7044 4.7442,2.17787 7.6042,4.50517 1.6385,1.33337 3.5744,2.7722 4.302,3.19736 0.7276,0.42518 1.8668,1.13159 2.5314,1.56977 0.6647,0.4382 1.8921,1.21343 2.7276,1.72275 1.7784,1.08413 4.3602,3.00988 4.9275,3.67541 0.2183,0.25606 1.0218,0.91313 1.7857,1.46013 0.9854,0.70572 1.4229,0.89202 1.5065,0.64148 0.5903,-1.77051 0.7508,-10.62963 0.2508,-13.84681 -0.068,-0.43656 -0.1702,-2.16297 -0.2274,-3.83646 -0.057,-1.67349 -0.2004,-5.66208 -0.3182,-8.86354 -0.2605,-7.08382 -0.2624,-8.90736 -0.021,-19.18229 0.4234,-18.00146 0.5747,-30.82602 0.3678,-31.16077 -0.066,-0.10713 -0.1968,-3.52798 -0.2903,-7.60188 -0.193,-8.40478 -0.3134,-11.07503 -0.6248,-13.85607 -0.3405,-3.04041 -0.225,-22.12017 0.162,-26.75628 0.2208,-2.64533 0.2636,-4.81526 0.1206,-6.11312 -0.1219,-1.10662 -0.1378,-2.32542 -0.035,-2.70841 0.2569,-0.96062 0,-1.80493 -0.5279,-1.70846 -0.2571,0.0473 -1.4002,1.98538 -2.8555,4.84145 -1.3347,2.61937 -3.3366,6.54844 -4.4486,8.73125 -1.112,2.18281 -2.6004,4.92125 -3.3074,6.085411 -0.7071,1.164169 -1.2948,2.25407 -1.3061,2.421969 -0.011,0.167939 -0.4563,1.0609 -0.9889,1.984381 -0.5326,0.923499 -1.3236,2.333918 -1.7578,3.13428 -0.4341,0.80036 -1.1651,2.050519 -1.6244,2.77812 -0.4592,0.72761 -0.9793,1.620578 -1.1557,1.98438 -0.1765,0.3638 -0.7513,1.435359 -1.2774,2.381249 -0.5261,0.94589 -2.1506,4.10104 -3.61,7.01146 -2.3949,4.77607 -2.6514,5.42771 -2.6323,6.68784 0.028,1.85815 -0.509,2.23843 -3.0285,2.14421 -3.8099,-0.39141 -3.0176,-1.86153 -4.6617,-4.2564 -1.2502,-1.80277 -2.038,-3.27126 -2.038,-3.79878 -1.7104,-1.93588 -2.3355,-4.59625 -3.8365,-6.57974 -0.5093,-0.66723 -0.926,-1.27442 -0.926,-1.34924 0,-0.20783 -2.4353,-4.432359 -2.8289,-4.90726 -0.1904,-0.22973 -0.3461,-0.568931 -0.3461,-0.75374 0,-0.18484 -0.5953,-1.347499 -1.3229,-2.583741 -0.7276,-1.236239 -1.323,-2.376619 -1.323,-2.534229 0,-0.157581 -0.4991,-1.307251 -1.1092,-2.554819 -0.6101,-1.247532 -1.1331,-2.401782 -1.1623,-2.564951 -0.029,-0.16316 -0.272,-0.63116 -0.5399,-1.039971 -0.2679,-0.4088 -0.4955,-0.870609 -0.5059,-1.026239 -0.038,-0.57499 -0.6469,-1.738149 -0.9094,-1.738149 -0.1492,0 -0.2712,-0.242091 -0.2712,-0.53795 0,-0.295881 -0.2812,-1.099561 -0.6248,-1.785941 -0.3437,-0.68641 -0.839,-1.90283 -1.1006,-2.70319 -0.2616,-0.80037 -1.1115,-2.72119 -1.8886,-4.26847 -0.7772,-1.54729 -1.4131,-2.96836 -1.4131,-3.15794 0,-0.1896 -0.2265,-0.59049 -0.5033,-0.8909 -0.6757,-0.73324 -1.6133,-2.44949 -1.6133,-2.9531 0,-0.28675 -0.2129,-0.38176 -0.7229,-0.32268 -0.5931,0.0687 -0.8594,0.36896 -1.4819,1.67121 -0.4174,0.87313 -0.85,1.64703 -0.9612,1.71979 -0.1113,0.0728 -0.2907,0.42995 -0.3988,0.79375 -0.2322,0.78182 -2.5734,5.89368 -2.787,6.08542 -0.081,0.0728 -0.957799,1.78845 -1.948299,3.81265 -0.990502,2.02416 -1.969,3.848391 -2.174401,4.053779 -0.205399,0.205401 -0.373399,0.525092 -0.373399,0.710412 0,0.18534 -0.238201,0.552479 -0.529201,0.815869 -0.290999,0.26339 -0.529201,0.58584 -0.529201,0.716539 0,0.130712 -0.535699,1.058421 -1.190598,2.06158 -0.654802,1.003171 -1.190602,1.949321 -1.190602,2.102591 0,0.153281 -0.119099,0.278659 -0.264599,0.278659 -0.145499,0 -0.264599,0.149202 -0.264599,0.331582 0,0.182379 -0.427501,0.92652 -0.95,1.65364 -0.522602,0.727131 -1.061701,1.606399 -1.198001,1.953869 -0.1363,0.347511 -0.869699,1.60044 -1.629601,2.78435 -2.414698,3.7616 -3.6307,5.90899 -3.6307,6.41122 0,0.18738 -0.335399,0.73179 -0.745199,1.20978 -1.074801,1.25333 -1.544899,2.08989 -4.689501,8.34448 -1.554398,3.09182 -2.902299,5.6306 -2.9953,5.64174 -2.621698,0.61713 -3.7748,-1.56201 -4.934699,-3.27835 -0.6311,-0.90016 -1.673299,-2.64871 -2.316001,-3.88564 -0.6427,-1.23693 -1.7061,-3.0824 -2.363199,-4.10104 -1.4758,-2.28788 -2.249,-3.6576 -4.2567,-7.540631 -0.8652,-1.673489 -1.6624,-3.102239 -1.7715,-3.175 -0.2004,-0.133717 -0.6349,-1.232267 -0.6802,-1.719789 -0.014,-0.14552 -0.3609,-0.978961 -0.7719,-1.85208 -0.4111,-0.873131 -1.2159,-2.599529 -1.7885,-3.836459 -1.2209,-2.63739 -1.1596,-2.515131 -2.4552,-4.894791 -0.5546,-1.018649 -1.3546,-2.361489 -1.7778,-2.98408 -0.4231,-0.62262 -1.0684,-1.813239 -1.434,-2.64583 -0.3656,-0.83262 -1.191,-2.579 -1.8342,-3.88088 -0.6432,-1.30189 -1.1695,-2.62676 -1.1695,-2.94418 0,-0.6355 -0.6582,-1.3398 -0.8946,-0.95726 -0.1471,0.23802 -0.029,8.26907 0.2556,17.38098 0.4694,21.49536 -1.8802,44.19748 -1.2208,63.36771 0.1621,2.57839 -0.134,9.49002 -0.4187,9.77466 -0.2065,0.20656 0.1227,12.4116 0.3894,14.43471 z m 2.1533,35.84636 c 0.7964,1.06196 4.4902,4.8101 7.9575,8.07447 1.391,1.30969 4.0095,3.93198 5.8187,5.82727 3.1266,3.27538 7.463799,7.18808 9.1335,8.23957 0.423799,0.26689 1.127699,0.8204 1.564299,1.23002 4.763402,4.46948 6.727801,5.91386 10.089001,7.41839 1.474399,0.65995 3.7366,1.44866 5.0271,1.75265 1.290499,0.30401 3.537,0.86011 4.9922,1.23577 7.354102,1.89838 9.123402,2.00182 19.843802,1.15999 8.118,-0.63747 9.95,-0.883 14.1552,-1.8972 3.7421,-0.90252 5.7805,-1.59172 6.8245,-2.30756 0.3939,-0.27001 1.9067,-1.27495 3.362,-2.23319 1.4552,-0.95825 2.8839,-1.96276 3.175,-2.23229 0.291,-0.26952 1.2435,-1.06908 2.1166,-1.77676 1.7645,-1.43013 6.0306,-5.51019 8.3086,-7.94614 0.8146,-0.87105 3.0288,-3.15041 4.9206,-5.06526 3.2882,-3.32839 6.7469,-7.07884 6.7469,-7.31603 0,-0.0615 0.5357,-0.92754 1.1906,-1.92456 0.6548,-0.99703 1.1906,-2.01845 1.1906,-2.26986 0,-0.80163 -1.1332,-2.39321 -3.175,-4.45926 -3.812,-3.85731 -7.322,-6.47308 -13.8145,-10.29502 -1.5588,-0.91765 -2.9724,-1.83491 -3.1412,-2.03835 -0.4304,-0.51861 -1.4726,-0.46119 -1.6905,0.0931 -0.2001,0.50909 -0.7309,3.39077 -1.3037,7.07761 -0.6089,3.91922 -2.2811,10.53893 -3.2081,12.7 -1.5694,3.65844 -2.9305,6.48716 -3.4607,7.19224 -0.3483,0.46324 -0.6334,0.9108 -0.6334,0.9946 0,0.43063 -3.0306,4.71985 -4.3105,6.10066 -2.6173,2.82365 -3.4708,3.57912 -4.8176,4.26455 -0.7276,0.37028 -1.4136,0.83415 -1.5245,1.03083 -0.1109,0.19668 -0.5277,0.52227 -0.9261,0.72354 -1.012,0.51134 -1.5798,0.80232 -3.1526,1.61587 -3.6824,1.90468 -8.8007,3.19144 -11.5947,2.91494 -5.1528,-0.50988 -6.6775,-0.7465 -7.391,-1.14694 -0.4461,-0.25035 -1.262,-0.60384 -1.813102,-0.78554 -0.5511,-0.18173 -1.682199,-0.67539 -2.513499,-1.09703 -0.8314,-0.42167 -1.645801,-0.76815 -1.809901,-0.76999 -0.1641,-0.003 -0.4445,-0.17949 -0.623199,-0.39476 -3.867801,-1.94894 -7.699902,-4.62774 -10.125202,-7.27665 -2.225498,-2.44575 -3.7465,-4.66968 -4.835898,-7.07104 -0.3824,-0.84304 -0.968402,-2.1281 -1.3022,-2.85573 -0.333801,-0.72758 -0.8275,-2.27539 -1.0971,-3.43955 -0.269502,-1.1642 -0.552601,-2.1762 -0.6291,-2.24896 -0.077,-0.0728 -0.165502,-0.66808 -0.198001,-1.32292 -0.033,-0.65484 -0.218501,-3.27422 -0.413501,-5.82083 -0.374698,-4.893 -0.2343,-7.40069 0.719402,-12.85288 0.620699,-3.54901 0.6053,-3.65149 -0.521301,-3.46866 -0.514699,0.0835 -2.092301,0.75165 -3.5057,1.48474 -1.413399,0.73305 -3.343802,1.70023 -4.2897,2.14929 -0.945901,0.44905 -1.9579,1.0338 -2.2489,1.29942 -0.2911,0.26561 -1.184,0.8165 -1.9844,1.2242 -1.1444,0.58295 -3.5607,2.34746 -4.4979,3.28472 -0.3095,0.30948 -2.3594,2.06473 -3.5534,3.04268 -1.9911,1.63073 -7.1753,6.93592 -7.7293,7.90956 -0.3502,0.6155 -0.216,1.05172 0.6993,2.27224 z m 32.392999,-10.71094 c 0.072,3.78354 0.249502,7.23635 0.394102,7.67291 0.293399,0.88538 1.048999,3.73764 1.366899,5.15938 0.565499,2.52918 0.853799,3.46437 1.631301,5.29167 0.464299,1.0914 1.353799,2.72798 1.976398,3.63683 0.622602,0.90884 1.132102,1.74826 1.132102,1.86536 0,0.1783 2.1155,2.55508 3.893198,4.37394 1.136901,1.16326 10.383303,5.20512 11.907603,5.20512 0.351,0 0.8501,0.11345 1.1092,0.25213 0.2591,0.13866 1.4119,0.3689 2.5618,0.51167 3.3029,0.41005 7.9197,-0.54407 10.2384,-2.11588 0.6126,-0.41523 1.2027,-0.75713 1.3115,-0.75976 0.8988,-0.022 11.2402,-9.22301 12.6201,-11.22867 0.4445,-0.64603 0.8082,-1.25042 0.8082,-1.34305 0,-0.0926 0.2838,-0.54742 0.6307,-1.01065 0.347,-0.46324 0.7182,-1.13991 0.8251,-1.50371 0.1069,-0.3638 0.3395,-0.84005 0.517,-1.05833 0.3792,-0.46646 2.2547,-5.45894 2.3963,-6.37882 0.054,-0.34795 0.2309,-1.16842 0.3941,-1.82327 0.4163,-1.67089 1.8722,-9.36228 2.1034,-11.1125 0.1057,-0.80036 0.135,-2.27031 0.065,-3.26654 -0.1232,-1.75504 -0.1602,-1.83526 -1.1878,-2.57969 -0.5834,-0.42259 -1.1983,-0.76835 -1.3665,-0.76835 -0.1682,0 -0.7092,-0.29766 -1.2023,-0.66146 -1.6863,-0.49381 -3.8886,-1.89691 -5.1205,-2.25713 -0.6034,-0.15317 -1.3354,-0.39013 -1.6264,-0.52658 -1.1832,-0.5547 -2.8105,-1.08952 -5.6886,-1.86965 -3.7417,-1.01423 -10.8556,-2.0388 -14.8268,-2.13542 -3.8342,0.58672 -7.249,0.58392 -10.941902,0.70635 -2.198301,0.10301 -4.075901,0.23445 -4.172601,0.29213 -0.097,0.0577 -0.9896,0.27535 -1.984298,0.48374 -3.8852,0.81383 -9.428501,2.4461 -9.736201,2.86687 -0.218099,0.29823 -0.2926,1.49158 -0.2384,3.81801 0.043,1.86129 0.1378,6.47981 0.209899,10.26335 z m 9.981501,-0.39688 c 0.138301,-0.50932 0.352701,-1.34276 0.476499,-1.85208 0.330801,-1.36163 1.247902,-3.67284 1.716302,-4.32578 0.224499,-0.31295 0.613098,-0.86667 0.863499,-1.23047 3.869899,-5.6234 6.624802,-7.15981 12.909902,-7.2 7.1136,-0.0455 14.949,2.63202 16.709,5.70973 1.0864,1.89984 1.7106,3.4553 2.0676,5.15245 0.4554,2.16527 0.5367,6.59426 0.1524,8.30641 -1.0611,4.72728 -1.4105,5.87764 -2.1669,7.13401 -1.7923,2.97691 -3.7522,5.02245 -6.5363,6.82186 -2.048,1.32368 -4.2033,2.38596 -4.841,2.38596 -0.2887,0 -0.7794,0.13623 -1.0905,0.30271 -1.61,0.86166 -8.9945,-0.1447 -12.088401,-1.64743 -2.277001,-1.10591 -4.773602,-3.19016 -4.773602,-3.98502 0,-0.25295 -0.1305,-0.54049 -0.289898,-0.63903 -0.508101,-0.31398 -2.0573,-3.83524 -2.3655,-5.37665 -0.163602,-0.81777 -0.4665,-2.07404 -0.6731,-2.79167 -0.418602,-1.45362 -0.4587,-5.33387 -0.07,-6.765 z m 4.227201,0.52917 c 0.164798,0 1.385199,-1.07217 2.712,-2.38257 6.821501,-6.73725 7.821401,-7.6716 8.209401,-7.6716 0.4812,0 0.558,-0.55065 0.1357,-0.97295 -0.1862,-0.18619 -0.622,-0.20672 -1.2568,-0.0592 -0.5345,0.12419 -1.423,0.22862 -1.9745,0.23209 -0.5515,0.003 -1.4526,0.23582 -2.0024,0.51633 -0.9995,0.50988 -2.948002,2.44065 -2.948002,2.92114 0,0.14004 -0.340601,0.64571 -0.757,1.12371 -0.416401,0.47799 -0.9722,1.28582 -1.235101,1.79514 -1.016198,1.96845 -1.512898,4.49792 -0.883298,4.49792 z m 0.192299,7.09242 c 0.1598,0.25194 1.3262,-0.60828 4.305202,-3.175 2.2474,-1.9363 4.7425,-4.23492 5.5448,-5.10805 0.8022,-0.87312 3.0302,-3.16034 4.9511,-5.08269 1.9208,-1.92233 3.4924,-3.61897 3.4924,-3.77032 0,-0.15131 -0.2879,-0.27511 -0.6398,-0.27511 -0.3519,0 -0.8153,-0.0674 -1.0299,-0.1497 -0.3845,-0.14753 -1.9213,1.04357 -4.4157,3.42244 -0.6548,0.62452 -1.6073,1.42002 -2.1166,1.76776 -0.5094,0.34774 -2.3782,2.06457 -4.1531,3.81516 -5.754101,5.67534 -6.153003,6.1473 -6.155501,7.28392 0,0.50933 0.096,1.08154 0.217099,1.27159 z m 2.3613,5.93831 c 0.842899,0.96642 1.0394,0.84077 6.623702,-4.23519 0.9194,-0.83574 2.0594,-1.81715 2.5333,-2.18096 1.6199,-1.24346 9.888,-9.3836 10.5367,-10.37367 0.2193,-0.33465 0.9509,-0.88427 1.6259,-1.22137 0.7531,-0.37611 1.2272,-0.79034 1.2272,-1.07212 0,-0.50462 -1.0779,-2.09045 -1.7757,-2.61252 -0.6141,-0.45943 -1.6565,-0.41879 -1.6969,0.0661 -0.018,0.21828 -0.063,0.51594 -0.099,0.66146 -0.036,0.14552 -0.081,0.4286 -0.099,0.62905 -0.018,0.20047 -0.7177,0.92257 -1.5545,1.60469 -2.1188,1.72734 -4.4756,3.90253 -13.1552,12.14171 -0.8688,0.82476 -1.6776,1.49955 -1.7973,1.49955 -0.3632,0 -2.892004,2.47671 -3.106603,3.04271 -0.2086,0.55001 0.046,1.2573 0.737799,2.05052 z m 5.367902,2.85214 c 1.0992,0.45528 2.0075,0.003 4.6631,-2.32364 1.1357,-0.99483 2.541,-2.16066 3.1231,-2.59077 0.5821,-0.43011 1.2157,-0.93083 1.408,-1.11273 0.1923,-0.1819 0.44,-0.33073 0.5506,-0.33073 0.1105,0 0.3582,-0.29377 0.5503,-0.65283 0.1922,-0.35907 0.8027,-0.95279 1.3567,-1.3194 0.554,-0.36663 1.3992,-1.02534 1.8781,-1.46381 2.2589,-2.06785 3.5874,-3.14491 4.3728,-3.54541 0.4995,-0.25472 0.9263,-0.71655 1.0248,-1.1089 0.1757,-0.69985 0.01,-2.94296 -0.2408,-3.19013 -0.5197,-0.51967 -4.0632,2.32963 -9.5482,7.67762 -1.5846,1.54501 -2.9335,2.80911 -2.9975,2.80911 -0.064,0 -0.6337,0.50602 -1.266,1.12448 -0.6324,0.61846 -1.6509,1.5412 -2.2635,2.05052 -2.3611,1.96297 -3.4242,2.99032 -3.4242,3.30888 0,0.18211 0.3657,0.48257 0.8127,0.66774 z m 7.9643,0.4079 c 1.5477,-0.20529 1.9076,-0.36822 3.6254,-1.64124 0.673,-0.49871 1.5808,-1.17078 2.0174,-1.49347 1.8267,-1.35027 4.101,-4.35234 4.101,-5.41348 0,-0.32935 -0.072,-0.59883 -0.1604,-0.59883 -0.088,0 -1.1301,0.76742 -2.3151,1.7054 -3.1435,2.48795 -3.5287,2.80352 -5.0276,4.11747 -0.7482,0.65596 -1.8665,1.59861 -2.4849,2.09481 -0.6185,0.49618 -1.1245,1.01661 -1.1245,1.15652 0,0.15341 0.5433,0.18233 1.3687,0.0728 z"
       id="path4758-8-9"
       inkscape:connector-curvature="0"
       sodipodi:nodetypes="ccsscccccccccssccsccccscccccscccccscccccsccsccscccsccccsccccsccccscccccccccccccccccccccccccccccccccscccsccccccccccccccccccccscscccccccccccccccccccccccccccccccccccsccccccsccccccscsssccccsscccscscccccccssscssscccsccccscccccsccccsccccccccssccccccccccccscsccccsccsscccccccccccccccccccccccccccccccccscssccccscsccccccscccccccccccccccccccccsccsccccccsccccsccccccccsscccccccccccsccscccscccccssscccccccsccsccccsscccscc" />
    <path
       style="fill:#000000;stroke-width:0.28270513"
       d="m 139.80505,147.14496 c -0.3885,0.007 -0.7825,0.297 -1.2805,0.89028 l -0.7772,0.92626 -0.051,7.48857 c -0.028,4.11873 -0.1761,10.125 -0.3292,13.34705 -0.1531,3.22201 -0.28,7.37022 -0.28,9.21897 0.6455,5.2059 -4.0633,8.86574 0.9219,9.36882 4.6691,0.90552 2.6728,-0.44047 3.253,-5.80299 -0.4485,-1.81972 -0.5719,-9.92844 -0.1819,-11.9547 0.2812,-1.48467 0.3519,-4.24777 0.2909,-12.19011 -0.076,-9.94167 -0.095,-10.28722 -0.6232,-10.79893 -0.3415,-0.3312 -0.6404,-0.49814 -0.9426,-0.49322 z"
       id="path4758-9-79"
       inkscape:connector-curvature="0"
       sodipodi:nodetypes="ccccccccccccc" />
    <path
       style="fill:#000000;stroke-width:0.26887205"
       d="m 159.43875,161.44437 c -0.2894,-0.008 -0.6434,0.11691 -1.126,0.37462 -0.6956,0.37149 -0.7648,0.56633 -1.0449,2.93723 -0.4251,3.59764 -0.5856,12.13103 -0.3282,17.43017 0.12,2.47954 0.1462,5.98374 0.057,7.78706 0.5165,10.6021 -2.6868,6.91165 2.4055,10.53273 0.9141,0.5959 1.9601,1.23219 2.3239,1.41418 l -0.6573,-5.68927 -0.033,-2.30913 c -0.018,-1.27002 -0.1202,-4.21487 -0.2274,-6.54416 -0.1072,-2.32929 -0.212,-8.91878 -0.232,-14.64344 -0.03,-8.37735 -0.1078,-10.49674 -0.4,-10.86091 -0.2234,-0.2784 -0.448,-0.4206 -0.7374,-0.42905 z m 2.2872,40.47596 c 0.1163,0.0583 0.2433,0.12962 0.3798,0.21346 v -0.0255 c -0.1232,-0.0509 -0.2488,-0.11051 -0.3798,-0.18785 z"
       id="path4758-9-8-1"
       inkscape:connector-curvature="0"
       sodipodi:nodetypes="cccccccccscccccccc" />
    <path
       style="fill:#000000;stroke-width:0.26966244"
       d="m 107.84445,137.40535 c -0.2449,0.011 -0.4529,0.20082 -0.8475,0.64952 -0.6707,0.76189 -0.7114,0.96669 -0.7234,3.55681 -0.025,5.43418 -0.043,9.88492 -0.054,13.61474 v 12.51538 c 0.017,2.63943 0.052,4.11697 0.1054,5.00132 -0.2029,2.21569 0.1491,4.00119 0.6966,6.15114 1.3702,-0.11538 2.1566,1.06456 3.7078,1.04995 -0.333,-0.34591 -0.2912,-7.34517 -0.4718,-20.30963 -0.2978,-21.38613 -0.256,-20.23333 -0.7612,-21.03432 -0.2512,-0.39822 -0.7564,-0.86551 -1.1224,-1.0387 -0.2216,-0.10489 -0.3822,-0.16281 -0.5292,-0.15621 z m 2.8846,42.53886 c 0,0.002 0.01,-1.5e-4 0.01,0.001 v -0.002 c 0,5.2e-4 -0.01,5.2e-4 -0.01,0.001 z"
       id="path4758-9-9-9"
       inkscape:connector-curvature="0"
       sodipodi:nodetypes="cccccccccccccsccs" />
    <path
       style="fill:#000000;stroke-width:0.27537322"
       d="m 150.81555,154.00944 c -0.3431,0.0114 -0.7143,0.15964 -1.0485,0.44277 -0.6249,0.52953 -1.3853,3.92159 -1.3953,6.18828 0,1.20507 -0.1837,4.5769 -0.4015,7.49309 -0.218,2.91619 -0.4524,9.16368 -0.5224,13.88291 -0.4202,2.58311 0.9618,7.2722 -0.6057,9.05981 5.8345,4.53164 4.5737,5.57355 4.962,-2.24964 0.032,-0.52017 -0.084,-1.13185 -0.2574,-1.35854 -0.3868,-0.50131 -0.3908,-7.96735 -0.01,-16.02404 0.1417,-3.00306 0.3333,-7.95121 0.42629,-10.99616 0.1494,-4.90825 0.119,-5.59593 -0.2682,-6.05953 -0.2212,-0.26474 -0.5359,-0.39033 -0.87899,-0.37895 z"
       id="path4758-9-1-4"
       inkscape:connector-curvature="0"
       sodipodi:nodetypes="ccccccccccccc" />
    <path
       style="fill:#000000;stroke-width:0.2789793"
       d="m 119.12505,140.31105 c -0.3885,0.007 -0.7825,0.28923 -1.2805,0.86697 l -0.7772,0.90201 -0.051,7.29249 c -0.028,4.01088 -0.1761,9.85987 -0.3292,12.99755 -0.1531,3.13764 -0.28,7.17724 -0.28,8.97758 0,3.29499 -0.026,7.168 -1.5297,8.31916 v 0.5033 c 0.9378,0.12684 1.8728,0.24518 2.4516,0.30104 4.6691,0.88181 2.6728,-0.42894 3.253,-5.65105 -0.4485,-1.77206 -0.5719,-9.66846 -0.1819,-11.64167 0.2812,-1.44579 0.3519,-4.13654 0.2909,-11.8709 -0.076,-9.68135 -0.095,-10.01786 -0.6232,-10.51617 -0.3415,-0.32252 -0.6404,-0.4851 -0.9426,-0.48031 z"
       id="path4758-9-0-08"
       inkscape:connector-curvature="0"
       sodipodi:nodetypes="cccccscccccccc" />
    <path
       style="fill:#000000;stroke-width:0.28318754"
       d="m 129.77805,142.5978 c -0.3885,0.007 -0.7825,0.29803 -1.2805,0.89332 l -0.7772,0.92944 -0.051,7.51417 c -0.028,4.13279 -0.1761,10.15957 -0.3292,13.39262 -0.1531,3.23302 -0.28,7.3954 -0.28,9.25047 0,3.39514 0.4751,5.05128 -1.0286,6.23743 -0.053,1.03871 1.21,3.08841 1.9505,3.16338 4.6691,0.90862 2.6728,-0.44197 3.253,-5.82281 -0.4485,-1.82593 -0.5719,-9.96234 -0.1819,-11.99553 0.2812,-1.48974 0.3519,-4.26228 0.2909,-12.23174 -0.076,-9.97564 -0.095,-10.32237 -0.6232,-10.83584 -0.3415,-0.33233 -0.6404,-0.49984 -0.9426,-0.49491 z"
       id="path4758-9-0-5-7"
       inkscape:connector-curvature="0"
       sodipodi:nodetypes="cccccscccccccc" />
    <path
       style="fill:#000000;stroke-width:0.28478235"
       d="m 74.070549,147.20166 c 0.388498,0.007 0.782499,0.30138 1.280498,0.90341 l 0.7772,0.93992 0.051,7.59903 c 0.028,4.17947 0.176098,10.27433 0.329199,13.5439 0.153099,3.26953 0.280001,7.47893 0.280001,9.35495 1.821098,9.24937 -3.366902,12.27443 -4.1749,3.61842 0.448498,-1.84656 0.571899,-10.07488 0.181898,-12.13103 -0.281199,-1.50656 -0.351898,-4.31042 -0.290898,-12.3699 0.076,-10.0883 0.095,-10.43895 0.623199,-10.9582 0.3415,-0.33609 0.6404,-0.5055 0.942599,-0.5005 z"
       id="path4758-9-5-1"
       inkscape:connector-curvature="0"
       sodipodi:nodetypes="cccccccccccc" />
    <path
       style="fill:#000000;stroke-width:0.25750908"
       d="m 52.757348,164.28174 c 0.2894,-0.008 0.6434,0.10725 1.126,0.34363 0.6956,0.34075 0.7648,0.51948 1.0449,2.6942 0.4251,3.3 0.5856,11.12735 0.3282,15.98806 -0.12,2.27438 -0.1462,5.48865 -0.057,7.14277 l 0.1623,3.00749 c 0.4333,6.20051 5.1158,1.6329 -2.5678,6.65379 -0.9141,0.54658 -1.9601,1.13023 -2.3239,1.29717 l 0.6573,-5.21856 0.033,-2.11807 c 0.018,-1.16495 0.120199,-3.86615 0.2274,-6.00272 0.1072,-2.13656 0.212,-8.18086 0.232,-13.43187 0.03,-7.68423 0.1078,-9.62827 0.4,-9.9623 0.2234,-0.25537 0.448,-0.38581 0.7374,-0.39356 z m -2.667,37.32288 v -0.0235 c 0.4408,-0.19031 0.3312,-0.15385 0,0.0235 z"
       id="path4758-9-8-6-4"
       inkscape:connector-curvature="0"
       sodipodi:nodetypes="ccccccccccsccccccc" />
    <path
       style="fill:#000000;stroke-width:0.26835394"
       d="m 62.687948,155.12444 c 0.3431,0.0108 0.7143,0.1516 1.0485,0.42049 0.6249,0.50288 1.3853,3.72421 1.3953,5.87681 0,1.14442 0.1837,4.34655 0.4015,7.11597 0.218,2.76942 0.4524,8.70246 0.5224,13.18417 0.085,5.47497 0.222,8.20857 0.4166,8.33227 -3.2056,5.06857 -4.5645,2.38507 -4.7729,-1.86486 -0.032,-0.49399 0.084,-1.07488 0.2574,-1.29016 0.3868,-0.47608 0.3908,-7.56635 0.01,-15.21755 -0.1417,-2.8519 -0.3333,-7.551 -0.4263,-10.44271 -0.1494,-4.66121 -0.119,-5.31428 0.2682,-5.75455 0.2212,-0.25142 0.5359,-0.37069 0.879,-0.35988 z"
       id="path4758-9-1-7-9"
       inkscape:connector-curvature="0"
       sodipodi:nodetypes="ccccccccccccc" />
    <path
       style="fill:#000000;stroke-width:0.26519319"
       d="m 97.191748,139.91887 c 0.244901,0.0107 0.4529,0.19423 0.8475,0.62818 0.6707,0.73683 0.711401,0.9349 0.7234,3.43988 0.025,5.25554 0.043,9.55998 0.054,13.16719 v 12.10397 c -0.01701,2.55265 -0.052,3.98164 -0.105402,4.8369 -0.088,1.4256 -0.076,2.33323 0.105402,2.90308 l -0.802002,3.04585 c -1.370198,-0.11158 -2.156598,1.02958 -3.707799,1.01546 0.332999,-0.33456 0.2912,-7.10373 0.471799,-19.64201 0.297802,-20.6831 0.256001,-19.5682 0.761201,-20.34287 0.251201,-0.38512 0.756399,-0.83704 1.1224,-1.00455 0.221599,-0.10144 0.382201,-0.15746 0.529201,-0.15108 z m -2.884599,41.14051 c 0,0.002 -0.01,-1.7e-4 -0.01,0.001 v -0.002 c 0,5.3e-4 0.01,5.3e-4 0.01,0.001 z"
       id="path4758-9-9-7-8-5"
       inkscape:connector-curvature="0" />
    <path
       style="fill:#000000;stroke-width:0.27717969"
       d="m 84.891247,142.94745 c 0.388501,0.007 0.7825,0.28551 1.280502,0.85582 l 0.7772,0.89041 0.051,7.19871 c 0.028,3.9593 0.176101,9.73307 0.329199,12.8304 0.153102,3.0973 0.280001,7.08494 0.280001,8.86212 0,3.25262 0.02601,7.07582 1.529699,8.21219 v 0.49682 c -0.9378,0.12521 -1.8728,0.24204 -2.4516,0.29717 -4.669099,0.87046 -2.6728,-0.42342 -3.252999,-5.57837 0.4485,-1.74928 0.571899,-9.54413 0.181901,-11.49197 -0.281202,-1.42719 -0.351901,-4.08334 -0.290901,-11.71824 0.076,-9.55685 0.095,-9.88902 0.623199,-10.38092 0.3415,-0.31838 0.6404,-0.47887 0.942602,-0.47414 z"
       id="path4758-9-0-2-8"
       inkscape:connector-curvature="0"
       sodipodi:nodetypes="cccccscccccccc" />
  </g>
</svg>
